<?xml version="1.0" encoding="utf-8"?>
<!-- Generator: Adobe Illustrator 27.5.0, SVG Export Plug-In . SVG Version: 6.00 Build 0)  -->
<svg version="1.1" id="Capa_1" xmlns="http://www.w3.org/2000/svg" xmlns:xlink="http://www.w3.org/1999/xlink" x="0px" y="0px"
	 viewBox="0 0 2122 2122" style="enable-background:new 0 0 2122 2122;" xml:space="preserve">
<path style="fill:#EBEDEE;" d="M2017.728,475.36l0.068,0.037l-46.984-27.304c-4.305-2.501-10.273-2.142-16.858,1.66l-90.189,52.071
	c-62.008,35.8-117.237,106.979-145.992,183.683l-438.338-254.735c17.571-62.196,61.43-123.164,111.476-152.058l90.189-52.071
	c13.067-7.544,23.631-25.84,23.588-40.855c-0.021-7.48-2.671-12.725-6.941-15.173l0.058,0.032l-46.984-27.304
	c-4.305-2.501-10.273-2.143-16.858,1.66l-90.189,52.07c-62.575,36.129-118.247,108.285-146.775,185.791l-43.523-25.293
	c-10.811-6.283-25.801-5.495-42.575,4.19L156.333,912.88c-36.765,21.226-64.74,75.164-58.924,113.6l72.654,479.67
	c2.052,13.561,8.07,23.12,16.68,28.122l599.024,348.115l-0.076-0.045c10.967,6.419,26.158,5.424,42.71-4.132l86.94-50.194
	c-9.468,21.075-14.998,43.278-14.941,63.754c0.074,26.327,9.372,44.852,24.366,53.566l49.237,28.614l-1.289-0.821
	c15.276,9.68,36.835,8.793,60.716-4.995c46.12-26.627,83.375-91.182,83.225-144.177c-0.075-26.413-9.431-44.972-24.505-53.652
	l0.139,0.073l-38.432-22.334l382.565-220.875c-9.112,20.684-14.415,42.393-14.358,62.446c0.075,26.328,9.373,44.853,24.366,53.566
	l49.237,28.614l-1.289-0.822c15.276,9.68,36.834,8.793,60.715-4.995c46.12-26.627,83.376-91.182,83.225-144.177
	c-0.075-26.413-9.431-44.971-24.505-53.651l0.139,0.073l-37.592-21.847l64.296-37.121c23.93-13.816,44.946-42.253,54.375-71.803
	c21.078-32.016,35.891-69.089,40.319-104.957l58.013-469.039c10.627-71.141,59.993-146.769,117.537-179.992l90.189-52.071
	c13.066-7.544,23.63-25.84,23.588-40.854C2024.658,483.053,2022.004,477.806,2017.728,475.36z M353.53,1010.641l-6.941-56.804
	c-2.762-22.736,12.111-53.546,33.218-68.843c1.7-1.205,3.329-2.267,4.958-3.259c19.053-10.978,35.768-4.25,38.247,16.715
	l19.69,161.061L353.53,1010.641z M522.594,1103.353l-10.128-249.029c-0.991-23.939,15.44-54.112,36.688-67.427
	c0.567-0.355,1.063-0.637,1.629-0.991c20.682-11.899,37.75-3.188,38.671,20.185l13.953,341.529L522.594,1103.353z M755.607,713.922
	l-12.612,376.401c-0.792,24.295-17.832,52.765-38.362,64.619c-0.543,0.313-1.085,0.626-1.673,0.913
	c-21.257,11.232-37.821,0.081-36.986-24.863l12.612-376.348c0.815-24.4,17.892-52.833,38.519-64.744
	c0.505-0.292,1.009-0.571,1.517-0.842C739.879,677.827,756.443,688.979,755.607,713.922z M921.488,621.899l-39.926,392.118
	c-2.424,23.832-18.974,49.73-38.101,60.773c-1.629,0.94-3.257,1.776-4.931,2.482c-21.127,9.074-36.113-4.497-33.468-30.331
	l39.925-392.117c2.397-23.799,18.965-49.714,38.097-60.761c1.614-0.932,3.246-1.758,4.89-2.468
	C909.101,582.52,924.132,596.066,921.488,621.899z M1087.097,529.928l-67.239,407.886c-3.785,23.056-19.752,46.536-37.569,56.823
	c-2.668,1.541-5.337,2.768-8.052,3.659c-20.861,6.945-34.222-8.919-29.859-35.38l67.239-407.887
	c3.8-23.089,19.797-46.589,37.641-56.892c2.647-1.529,5.331-2.766,8.026-3.669C1078.099,487.552,1091.461,503.415,1087.097,529.928z
	"/>
<path style="fill:#DB513A;" d="M1763.363,716.589c-2.865-4.74-6.578-8.435-10.977-10.964l0.113,0.064l-34.726-20.181
	l-438.338-254.735l-35.454-20.603l-46.984-27.304l-43.523-25.293c-10.811-6.283-25.801-5.495-42.575,4.19L156.333,912.88
	c-36.765,21.226-64.74,75.164-58.924,113.6l72.654,479.67c2.052,13.561,8.07,23.12,16.68,28.122l599.024,348.115l-0.076-0.045
	c10.967,6.419,26.158,5.424,42.71-4.132l86.94-50.194l138.516-79.973l382.565-220.875l139.938-80.793l64.296-37.121
	c23.93-13.816,44.946-42.253,54.375-71.803c2.17-6.801,3.727-13.661,4.563-20.416l69.701-561.859
	C1771.306,738.968,1768.936,725.804,1763.363,716.589z M353.53,1010.641l-6.941-56.804c-2.762-22.736,12.111-53.546,33.218-68.843
	c1.7-1.205,3.329-2.267,4.958-3.259c19.053-10.978,35.768-4.25,38.247,16.715l19.69,161.061L353.53,1010.641z M522.594,1103.353
	l-10.128-249.029c-0.991-23.939,15.44-54.112,36.688-67.427c0.567-0.355,1.063-0.637,1.629-0.991
	c20.682-11.899,37.75-3.188,38.671,20.185l13.953,341.529L522.594,1103.353z M755.607,713.922l-12.612,376.401
	c-0.792,24.295-17.832,52.765-38.362,64.619c-0.543,0.313-1.085,0.626-1.673,0.913c-21.257,11.232-37.821,0.081-36.986-24.863
	l12.612-376.348c0.815-24.4,17.892-52.833,38.519-64.744c0.505-0.292,1.009-0.571,1.517-0.842
	C739.879,677.827,756.443,688.979,755.607,713.922z M921.488,621.899l-39.926,392.118c-2.424,23.832-18.974,49.73-38.101,60.773
	c-1.629,0.94-3.257,1.776-4.931,2.482c-21.127,9.074-36.113-4.497-33.468-30.331l39.925-392.117
	c2.397-23.799,18.965-49.714,38.097-60.761c1.614-0.932,3.246-1.758,4.89-2.468C909.101,582.52,924.132,596.066,921.488,621.899z
	 M1087.097,529.928l-67.239,407.886c-3.785,23.056-19.752,46.536-37.569,56.823c-2.668,1.541-5.337,2.768-8.052,3.659
	c-20.861,6.945-34.222-8.919-29.859-35.38l67.239-407.887c3.8-23.089,19.797-46.589,37.641-56.892
	c2.647-1.529,5.331-2.766,8.026-3.669C1078.099,487.552,1091.461,503.415,1087.097,529.928z"/>
<path style="fill:#EBEDEE;" d="M1092.151,1770.305l0.139,0.073l-38.432-22.334l-138.516,79.973
	c-9.468,21.075-14.998,43.278-14.941,63.754c0.074,26.327,9.372,44.852,24.366,53.566l49.237,28.614l-1.289-0.821
	c15.276,9.68,36.835,8.793,60.716-4.995c46.12-26.627,83.375-91.182,83.225-144.177
	C1116.58,1797.544,1107.224,1778.985,1092.151,1770.305z"/>
<path style="fill:#EBEDEE;" d="M1613.814,1468.15l0.139,0.073l-37.592-21.847l-139.938,80.793
	c-9.112,20.684-14.415,42.393-14.358,62.446c0.075,26.328,9.373,44.853,24.366,53.566l49.237,28.614l-1.289-0.822
	c15.276,9.68,36.834,8.793,60.715-4.995c46.12-26.627,83.376-91.182,83.225-144.177
	C1638.244,1495.388,1628.888,1476.831,1613.814,1468.15z"/>
<path style="fill:#EBEDEE;" d="M2017.728,475.36l0.068,0.037l-46.984-27.304c-4.305-2.501-10.273-2.142-16.858,1.66l-90.189,52.071
	c-62.008,35.8-117.237,106.979-145.992,183.683l34.726,20.181l-0.113-0.064c4.399,2.53,8.112,6.225,10.977,10.964
	c5.573,9.215,7.943,22.379,5.934,38.589l-69.701,561.859c-0.837,6.755-2.393,13.615-4.563,20.416
	c21.078-32.016,35.891-69.089,40.319-104.957l58.013-469.039c10.627-71.141,59.993-146.769,117.537-179.992l90.189-52.071
	c13.066-7.544,23.63-25.84,23.588-40.854C2024.658,483.053,2022.004,477.806,2017.728,475.36z"/>
<path style="fill:#EBEDEE;" d="M1497.745,170.617l0.058,0.032l-46.984-27.304c-4.305-2.501-10.273-2.143-16.858,1.66l-90.189,52.07
	c-62.575,36.129-118.247,108.285-146.775,185.791l46.984,27.304l35.454,20.603c17.571-62.196,61.43-123.164,111.476-152.058
	l90.189-52.071c13.067-7.544,23.631-25.84,23.588-40.855C1504.665,178.309,1502.015,173.064,1497.745,170.617z"/>
<path style="fill:#8998A6;" d="M2017.728,475.36l-0.147-0.081l-0.259-0.14l-0.165-0.082l-0.246-0.12l-0.181-0.082l-0.25-0.109
	l-0.174-0.07l-0.259-0.101l-0.206-0.073l-0.229-0.079l-0.234-0.072l-0.224-0.067l-0.224-0.06l-0.24-0.061l-0.224-0.05l-0.246-0.053
	l-0.24-0.044l-0.236-0.041l-0.247-0.036l-0.237-0.033l-0.252-0.027l-0.246-0.024l-0.283-0.02l-0.204-0.012l-0.327-0.011
	l-0.185-0.005l-0.32,0.001l-0.198,0.002l-0.306,0.011l-0.22,0.009l-0.31,0.022l-0.22,0.017l-0.318,0.034l-0.219,0.024l-0.326,0.044
	l-0.216,0.031l-0.342,0.058l-0.205,0.035l-0.372,0.075l-0.182,0.037l-0.409,0.095l-0.15,0.035l-0.387,0.102l-0.186,0.05
	l-0.414,0.122l-0.153,0.045l-0.377,0.123l-0.21,0.069l-0.421,0.15l-0.153,0.055l-0.535,0.207l-0.05,0.019l-0.474,0.197l-0.125,0.052
	l-0.324,0.145l-0.284,0.127l-0.21,0.099l-0.385,0.184c-0.603,0.295-1.213,0.621-1.828,0.975l-90.189,52.071
	c-21.973,12.686-43.094,29.815-62.489,50.057c-1.109,1.157-2.211,2.323-3.308,3.5c-0.548,0.588-1.095,1.179-1.64,1.773
	c-1.636,1.78-3.26,3.582-4.869,5.405c-1.073,1.216-2.14,2.44-3.2,3.674c-0.614,0.715-1.224,1.433-1.834,2.153
	c-0.97,1.146-1.936,2.299-2.895,3.461c-1.562,1.892-3.109,3.803-4.641,5.733c-1.021,1.286-2.036,2.582-3.043,3.885
	c-2.015,2.607-4.002,5.247-5.96,7.917c-1.958,2.671-3.887,5.373-5.786,8.103c-0.474,0.682-0.947,1.367-1.418,2.053
	c-1.412,2.057-2.808,4.132-4.185,6.221c-1.378,2.09-2.737,4.194-4.078,6.313c-0.447,0.706-0.892,1.414-1.335,2.123
	c-3.789,6.068-7.425,12.25-10.899,18.525c-0.366,0.66-0.729,1.321-1.091,1.983c-3.228,5.909-6.311,11.898-9.238,17.953
	c-0.38,0.785-0.757,1.572-1.13,2.359c-1.053,2.214-2.084,4.436-3.094,6.666c-0.534,1.179-1.064,2.358-1.586,3.541
	c-2.155,4.886-4.204,9.805-6.147,14.751c-0.678,1.726-1.344,3.456-1.995,5.188c-0.218,0.579-0.434,1.159-0.649,1.739
	c-0.294,0.793-0.586,1.587-0.874,2.383c5.573,9.215,7.943,22.379,5.934,38.589l-69.701,561.859
	c-0.837,6.755-2.393,13.615-4.563,20.416c21.078-32.016,35.891-69.089,40.319-104.957l58.013-469.039
	c10.627-71.141,59.993-146.769,117.537-179.992l90.189-52.071c13.066-7.544,23.63-25.84,23.588-40.854
	C2024.658,483.053,2022.004,477.806,2017.728,475.36z"/>
<path style="fill:#8998A6;" d="M1497.337,170.394l-0.189-0.095l-0.227-0.11l-0.203-0.092l-0.219-0.096l-0.219-0.088l-0.218-0.085
	l-0.214-0.076l-0.234-0.081l-0.2-0.062l-0.256-0.077l-0.203-0.054l-0.251-0.065l-0.219-0.049l-0.258-0.055l-0.212-0.039
	l-0.259-0.046l-0.23-0.033l-0.262-0.036l-0.201-0.021l-0.298-0.03l-0.189-0.013l-0.308-0.02l-0.233-0.008l-0.27-0.007l-0.223,0.001
	l-0.305,0.002l-0.168,0.007l-0.358,0.015l-0.148,0.011l-0.383,0.029l-0.16,0.017l-0.367,0.04l-0.225,0.031l-0.316,0.045l-0.234,0.04
	l-0.314,0.054l-0.241,0.049l-0.313,0.064l-0.219,0.051l-0.351,0.083l-0.153,0.041l-0.41,0.109l-0.207,0.061l-0.36,0.107
	l-0.207,0.068l-0.381,0.125l-0.107,0.038l-0.468,0.167l-0.171,0.066l-0.425,0.164l-0.04,0.017l-0.538,0.224l-0.234,0.104
	l-0.969,0.451l-0.111,0.056l-0.493,0.249l-0.037,0.019l-1.181,0.649l-90.189,52.07c-7.533,4.349-14.967,9.221-22.265,14.561
	c-1.217,0.89-2.429,1.793-3.638,2.709c-3.021,2.29-6.019,4.659-8.989,7.105c-1.188,0.978-2.372,1.968-3.551,2.97
	c-1.179,1.002-2.354,2.016-3.524,3.042c-1.17,1.026-2.335,2.063-3.496,3.112c-2.321,2.098-4.623,4.241-6.904,6.428
	c-0.57,0.547-1.139,1.096-1.707,1.648c-1.703,1.656-3.394,3.337-5.073,5.041c-1.12,1.136-2.234,2.283-3.342,3.439
	c-0.554,0.578-1.107,1.16-1.658,1.743c-1.654,1.75-3.295,3.523-4.922,5.318c-0.543,0.598-1.084,1.199-1.623,1.802
	c-1.079,1.206-2.152,2.422-3.219,3.646c-0.779,0.895-1.553,1.796-2.326,2.7c-0.814,0.953-1.625,1.91-2.432,2.874
	c-1.048,1.252-2.089,2.513-3.124,3.783c-2.587,3.175-5.132,6.403-7.633,9.682c-1.001,1.312-1.994,2.631-2.98,3.959
	c-0.986,1.328-1.966,2.663-2.937,4.006c-0.486,0.671-0.97,1.345-1.452,2.02c-8.946,12.528-17.251,25.697-24.786,39.308
	c-0.366,0.66-0.729,1.321-1.091,1.984c-3.228,5.909-6.311,11.898-9.238,17.953c-0.38,0.785-0.757,1.571-1.131,2.358
	c-1.053,2.214-2.084,4.437-3.094,6.667c-0.321,0.71-0.641,1.419-0.957,2.13c-2.385,5.349-4.645,10.739-6.775,16.161
	c-0.678,1.726-1.343,3.455-1.995,5.188c-0.218,0.58-0.434,1.159-0.649,1.739l-0.264,0.713l35.454,20.603
	c17.571-62.196,61.43-123.164,111.476-152.058l90.189-52.071c13.067-7.544,23.631-25.84,23.588-40.855
	c-0.021-7.48-2.671-12.725-6.941-15.173l-0.18-0.1L1497.337,170.394z"/>
<path style="fill:#C63127;" d="M1763.363,716.589c-2.865-4.74-6.578-8.435-10.977-10.964l-0.247-0.141l-0.31-0.172l-0.214-0.116
	l-0.34-0.179l-0.213-0.109l-0.333-0.166l-0.234-0.115l-0.322-0.15l-0.236-0.11l-0.391-0.173l-0.172-0.075l-0.538-0.224l-0.193-0.076
	l-0.421-0.164l-0.198-0.073l-0.395-0.144l-0.216-0.074l-0.374-0.127l-0.257-0.083l-0.327-0.103l-0.292-0.088l-0.314-0.091
	l-0.281-0.079l-0.357-0.095l-0.248-0.064l-0.378-0.092l-0.241-0.058l-0.376-0.083l-0.264-0.057l-0.348-0.069l-0.284-0.056
	l-0.457-0.081l-0.172-0.03l-0.624-0.098l-0.285-0.039l-0.374-0.05l-0.276-0.033l-0.366-0.042l-0.327-0.032l-0.326-0.031
	l-0.332-0.027l-0.341-0.025l-0.312-0.02l-0.365-0.019l-0.302-0.013l-0.382-0.013l-0.299-0.008l-0.388-0.006l-0.29-0.003
	l-0.379,0.003l-0.33,0.003l-0.304,0.008l-0.385,0.01l-0.148,0.007l-0.89,0.045l-0.331,0.021l-0.305,0.024l-0.405,0.032l-0.333,0.032
	l-0.369,0.036l-0.349,0.039l-0.373,0.044l-0.367,0.047l-0.332,0.045l-0.381,0.055l-0.364,0.056l-0.36,0.058l-0.371,0.063
	l-0.357,0.063l-0.399,0.075l-0.331,0.064l-0.41,0.084l-0.343,0.072l-0.286,0.063l-0.927,0.216l-0.244,0.059l-0.436,0.112
	l-0.307,0.079l-0.424,0.115l-0.335,0.092l-0.435,0.125l-0.312,0.091l-0.439,0.133l-0.328,0.101l-0.43,0.136l-0.338,0.11
	l-0.438,0.146l-0.315,0.108l-0.462,0.161l-0.296,0.106l-0.471,0.171l-0.292,0.109l-0.5,0.189l-0.154,0.059
	c-0.597,0.232-1.198,0.477-1.801,0.732l-0.352,0.149l-0.476,0.209l-0.297,0.13l-0.483,0.218l-0.327,0.15l-0.464,0.217l-0.323,0.152
	l-0.464,0.224l-0.361,0.177l-0.448,0.223l-0.34,0.172l-0.458,0.234l-0.377,0.196l-0.433,0.227l-0.366,0.197l-0.463,0.251
	l-0.277,0.153l-0.546,0.304l-0.013,0.006l-0.773,0.44L1289.03,952.881l-533.672,308.115c-17.233,9.95-32.536,27.086-43.331,46.445
	c-2.519,4.517-4.793,9.155-6.789,13.852c-0.428,1.006-0.843,2.015-1.244,3.025c-0.535,1.349-1.048,2.7-1.537,4.054
	c-5.738,15.906-8.159,32.11-6.023,46.223l72.654,479.67c0.07,0.459,0.144,0.911,0.223,1.361l0.07,0.382l0.178,0.943l0.097,0.473
	l0.178,0.834l0.112,0.49l0.188,0.782l0.125,0.496l0.207,0.774l0.129,0.466l0.241,0.811l0.119,0.392l0.325,0.998l0.059,0.182
	l0.413,1.156l0.11,0.287l0.321,0.823l0.17,0.411l0.292,0.69l0.184,0.412l0.305,0.666l0.19,0.399l0.319,0.642l0.203,0.398
	l0.349,0.651l0.185,0.339l0.409,0.708l0.157,0.268l0.58,0.933l0.117,0.177l0.484,0.726l0.227,0.322l0.402,0.559l0.25,0.333
	l0.405,0.524l0.255,0.319l0.421,0.509l0.266,0.313l0.434,0.488l0.264,0.291l0.507,0.531l0.207,0.214l0.742,0.723l0.005,0.005
	l0.751,0.681l0.252,0.215l0.52,0.438l0.322,0.257l0.473,0.368l0.339,0.254l0.487,0.352l0.335,0.234l0.507,0.338l0.34,0.22
	l0.549,0.338l0.304,0.184c10.967,6.419,26.158,5.424,42.71-4.132l86.94-50.194l138.516-79.973l382.565-220.875l139.938-80.793
	l64.296-37.121c23.93-13.816,44.946-42.253,54.375-71.803c2.17-6.801,3.727-13.661,4.563-20.416l69.701-561.859
	C1771.306,738.968,1768.936,725.804,1763.363,716.589z"/>
<path style="fill:#C63127;" d="M603.408,1628.322c-104.318,35.726-410.642-111.709-410.642-111.709l562.871,321.527l-67.006-475.846
	C688.632,1362.295,707.726,1592.597,603.408,1628.322z"/>
<path style="fill:#EF7A54;" d="M174.189,918.049C103.691,949.2,111.313,1032.8,111.313,1032.8s14.361-80.24,69.307-72.07
	c67.903,10.097,575.018,282.945,575.018,282.945L174.189,918.049z"/>
<polygon style="fill:#C63127;" points="1605.787,750.427 1147.344,485.822 1052.016,1070.054 "/>
<path style="fill:#8998A6;" d="M1554.569,1481.273c-42.643,24.62-77.11,84.32-76.972,133.32c0.139,49,34.832,68.77,77.475,44.15
	c42.643-24.62,77.09-84.308,76.951-133.308C1631.884,1476.436,1597.212,1456.652,1554.569,1481.273z"/>
<path style="fill:#8998A6;" d="M1032.906,1783.428c-42.643,24.62-77.111,84.321-76.972,133.321
	c0.139,48.999,34.832,68.77,77.475,44.15c42.643-24.62,77.09-84.308,76.951-133.308
	C1110.22,1778.591,1075.548,1758.808,1032.906,1783.428z"/>
<path style="fill:#EBEDEE;" d="M1085.534,1834.267l0.059,0.03l-20.813-11.743c-6.417-3.622-15.47-2.479-25.613,4.284
	c-20.16,13.441-36.99,43.994-37.585,68.232c-0.295,12.04,3.471,20.26,9.809,23.837l20.814,11.742l-0.544-0.34
	c6.447,4.011,15.727,3.016,26.166-3.944c20.16-13.441,36.981-43.989,37.576-68.225
	C1095.698,1846.06,1091.906,1837.827,1085.534,1834.267z"/>
<path style="fill:#EBEDEE;" d="M1600.996,1533.863l0.058,0.03l-20.813-11.743c-6.417-3.621-15.47-2.479-25.613,4.283
	c-20.16,13.441-36.991,43.994-37.585,68.232c-0.295,12.041,3.472,20.26,9.809,23.836l20.813,11.743l-0.544-0.34
	c6.447,4.011,15.727,3.015,26.166-3.944c20.16-13.441,36.981-43.989,37.575-68.225
	C1611.16,1545.656,1607.368,1537.422,1600.996,1533.863z"/>
<path style="fill:#8998A6;" d="M1057.907,1923.056c18.641-12.427,34.193-40.671,34.743-63.082
	c0.55-22.41-14.111-30.511-32.751-18.084c-18.641,12.427-34.202,40.677-34.752,63.087
	C1024.597,1927.389,1039.267,1935.483,1057.907,1923.056z"/>
<path style="fill:#8998A6;" d="M1573.369,1622.652c18.64-12.428,34.193-40.673,34.743-63.082
	c0.55-22.41-14.111-30.512-32.751-18.084c-18.64,12.427-34.202,40.677-34.752,63.088
	C1540.059,1626.984,1554.729,1635.08,1573.369,1622.652z"/>
<path style="fill:#DB513A;" d="M1486.999,939.71c-1.644,0.71-3.275,1.536-4.889,2.468c-19.132,11.047-35.7,36.962-38.097,60.761
	l-39.926,392.118c-2.645,25.833,12.341,39.404,33.468,30.33c1.674-0.707,3.302-1.543,4.931-2.483
	c19.128-11.043,35.677-36.941,38.102-60.773l39.925-392.117C1523.157,944.181,1508.126,930.635,1486.999,939.71z"/>
<path style="fill:#DB513A;" d="M1656.308,842.585c-2.695,0.904-5.379,2.14-8.025,3.669c-17.844,10.303-33.842,33.802-37.641,56.891
	l-67.239,407.887c-4.363,26.461,8.998,42.324,29.859,35.381c2.716-0.891,5.385-2.12,8.052-3.659
	c17.817-10.287,33.785-33.767,37.57-56.824l67.239-407.886C1690.486,851.53,1677.123,835.666,1656.308,842.585z"/>
<path style="fill:#DB513A;" d="M855.409,1339.178c-3.919-18.634-19.994-23.616-37.81-13.329c-2.641,1.524-5.321,3.385-8.005,5.586
	c-20.832,17.128-34.061,48.344-29.56,69.739l69.328,329.039c3.902,18.618,19.951,23.613,37.767,13.327
	c2.668-1.541,5.381-3.419,8.047-5.635c20.832-17.127,34.06-48.342,29.561-69.686L855.409,1339.178z"/>
<path style="fill:#DB513A;" d="M1317.647,1037.174c-0.509,0.271-1.013,0.551-1.517,0.842
	c-20.627,11.912-37.704,40.343-38.519,64.744l-12.612,376.348c-0.835,24.944,15.729,36.096,36.986,24.863
	c0.588-0.287,1.13-0.6,1.673-0.914c20.53-11.853,37.57-40.324,38.362-64.618l12.612-376.401
	C1355.468,1037.093,1338.903,1025.942,1317.647,1037.174z"/>
<path style="fill:#DB513A;" d="M1022.058,1246.555c-2.522-20.938-19.187-27.699-38.267-16.683c-1.63,0.941-3.28,2.013-4.938,3.217
	c-21.11,15.31-35.969,46.114-33.232,68.84l42.015,344.809c2.55,20.96,19.193,27.695,38.321,16.65
	c1.628-0.94,3.255-1.984,4.928-3.209c21.109-15.311,35.969-46.114,33.187-68.813L1022.058,1246.555z"/>
<path style="fill:#DB513A;" d="M1188.481,1154.219c-0.949-23.353-18.003-32.114-38.677-20.178c-0.53,0.306-1.063,0.628-1.598,0.961
	c-21.251,13.309-37.698,43.52-36.725,67.42l14.702,360.63c0.926,23.303,18.073,32.036,38.603,20.183
	c0.543-0.313,1.131-0.653,1.673-1.017c21.251-13.311,37.698-43.521,36.724-67.42L1188.481,1154.219z"/>
</svg>
