<?xml version="1.0" encoding="utf-8"?>
<!-- Generator: Adobe Illustrator 28.1.0, SVG Export Plug-In . SVG Version: 6.00 Build 0)  -->
<svg version="1.1" id="Слой_1" xmlns="http://www.w3.org/2000/svg" xmlns:xlink="http://www.w3.org/1999/xlink" x="0px" y="0px"
	 viewBox="0 0 500 500" style="enable-background:new 0 0 500 500;" xml:space="preserve">
<style type="text/css">
	.st0{opacity:0.5;fill:#F5F5F5;enable-background:new    ;}
	.st1{fill:#F5F5F5;}
	.st2{fill:none;stroke:#D6D6D6;stroke-width:0.4657;stroke-linecap:round;stroke-linejoin:round;stroke-miterlimit:10;}
	.st3{fill:#FF92C9;}
	.st4{fill:#FDB6D6;}
	.st5{fill:#FFDEEF;}
	.st6{fill:none;stroke:#262626;stroke-linecap:round;stroke-linejoin:round;stroke-miterlimit:10;}
	.st7{fill:#FFFFFF;}
	.st8{fill:none;stroke:#FFFFFF;stroke-linecap:round;stroke-linejoin:round;stroke-miterlimit:10;}
	.st9{fill:#3897E9;}
	.st10{fill:#D6D6D6;}
	.st11{fill:#F7A99C;}
	.st12{fill:#FFC001;}
	.st13{fill:none;stroke:#3897E9;stroke-width:0.733;stroke-linecap:round;stroke-linejoin:round;stroke-miterlimit:10;}
	.st14{fill:none;stroke:#262626;stroke-width:0.4147;stroke-linecap:round;stroke-linejoin:round;stroke-miterlimit:10;}
	.st15{fill:#1775AF;}
	.st16{fill:#262626;}
	.st17{fill:none;stroke:#FFFFFF;stroke-width:0.4147;stroke-linecap:round;stroke-linejoin:round;stroke-miterlimit:10;}
	.st18{fill:#4450E4;}
	.st19{fill:#3748C4;}
	.st20{fill:#FF7769;}
	.st21{fill:none;stroke:#262626;stroke-width:0.733;stroke-linecap:round;stroke-linejoin:round;stroke-miterlimit:10;}
	.st22{fill:none;stroke:#262626;stroke-width:0.25;stroke-linecap:round;stroke-linejoin:round;stroke-miterlimit:10;}
	.st23{fill:none;stroke:#262626;stroke-width:0.274;stroke-linecap:round;stroke-linejoin:round;stroke-miterlimit:10;}
	.st24{fill:#FF7129;}
	.st25{opacity:0.2;fill:#DCF0FF;enable-background:new    ;}
	.st26{opacity:0.5;fill:#FFFFFF;enable-background:new    ;}
</style>
<g id="OBJECT">
	<ellipse class="st0" cx="250.4" cy="433.5" rx="221.3" ry="30.7"/>
	<g>
		<path class="st1" d="M210.6,378.4c0-3.2-0.1-7.5-0.8-12.6c-0.6-4.3-2.7-18.1-9.9-28.6c-11-15.8-23.5-8.7-36.3-25
			c-7.3-9.3-5.3-14.2-13.6-21.7c-7.4-6.6-15.3-9-23.8-10.4c-21.4-3.5-56.3-0.2-56.3-0.2c2.9,33.8,14.3,47.8,24.1,54.3
			c13.8,9.2,24.4,3.5,36.6,14.5c16,14.3,5.5,30.4,20.4,45.3c0,0,6.5,6.5,57.1,16.1l0,0L210.6,378.4z"/>
		<path class="st2" d="M208.2,410.1c0,0-39.1-66.6-54-79.6s-84.3-50.6-84.3-50.6"/>
		<line class="st2" x1="120.1" y1="308.2" x2="76.4" y2="310.7"/>
		<line class="st2" x1="129.1" y1="313.6" x2="132" y2="281.2"/>
		<line class="st2" x1="149" y1="326.5" x2="111.2" y2="340.4"/>
		<line class="st2" x1="165" y1="343.1" x2="169.8" y2="318.5"/>
		<line class="st2" x1="177.2" y1="360.5" x2="140.5" y2="367.2"/>
		<line class="st2" x1="186.7" y1="375.1" x2="200.5" y2="338.2"/>
		<line class="st2" x1="195.4" y1="389" x2="153" y2="395.3"/>
	</g>
	<g>
		<path class="st1" d="M187.3,383.6c-1.2-2.9-2.9-6.9-5.6-11.4c-2.2-3.8-9.4-15.7-20.1-22.6c-16.2-10.4-25,0.9-43.1-9.3
			c-10.3-5.8-10.3-11.1-20.9-14.8c-9.3-3.3-17.6-2.5-26-0.5c-21.1,4.9-52.1,21.3-52.1,21.3c15.7,30.1,31.5,38.7,43.1,41
			c16.2,3.2,23.9-6,39.4-0.6c20.2,7.1,16.7,26,36.1,34.1c0,0,8.5,3.5,59-6.9l0,0L187.3,383.6z"/>
		<path class="st2" d="M197.2,413.8c0,0-61.6-46.6-80.3-52.9c-18.8-6.4-97.3-14.6-97.3-14.6"/>
		<line class="st2" x1="76.9" y1="353.3" x2="37.4" y2="372.3"/>
		<line class="st2" x1="87.3" y1="354.9" x2="77.6" y2="323.9"/>
		<line class="st2" x1="110.5" y1="359.2" x2="80.9" y2="386.5"/>
		<line class="st2" x1="131.7" y1="368.4" x2="126.8" y2="343.8"/>
		<line class="st2" x1="149.6" y1="379.8" x2="118.3" y2="400"/>
		<line class="st2" x1="164" y1="389.7" x2="162.7" y2="350.3"/>
		<line class="st2" x1="177.4" y1="399.2" x2="140.6" y2="421.2"/>
	</g>
	<polygon class="st3" points="329.8,414.3 196.5,414.3 209.3,326.2 317,326.2 	"/>
	<path class="st4" d="M428.9,341.7H97.3c-8.4,0-15.3-6.8-15.3-15.3V117.6c0-8.4,6.8-15.3,15.3-15.3h331.6c8.4,0,15.3,6.8,15.3,15.3
		v208.9C444.2,334.9,437.3,341.7,428.9,341.7z"/>
	<path class="st5" d="M420.1,316.6h-314c-8.4,0-15.3-6.8-15.3-15.3V124.8c0-8.4,6.8-15.3,15.3-15.3h314c8.4,0,15.3,6.8,15.3,15.3
		v176.6C435.4,309.8,428.6,316.6,420.1,316.6z"/>
	<path class="st4" d="M358.1,420.7H168.2v-9.2c0-7.1,5.7-12.8,12.8-12.8h164.2c7.1,0,12.8,5.7,12.8,12.8V420.7z"/>
	<line class="st6" x1="102.1" y1="316.6" x2="417.8" y2="316.6"/>
	<path class="st6" d="M176.6,416.2v-4.8c0-2.9,2.4-5.3,5.3-5.3h142.4"/>
	<line class="st6" x1="309.1" y1="348.7" x2="314.1" y2="387.3"/>
	<circle class="st7" cx="259.9" cy="329.9" r="7.4"/>
	<path class="st8" d="M365,123.6h39.2c7.5,0,13.5,6.1,13.5,13.5v81.5"/>
	<g>
		<path class="st9" d="M395,149.4c2.3-5.4,4.5-9.7,6.7-12.6c2.2-3,5.1-5.4,8.6-7.1c2.1-1.1,4.2-1.9,6.5-2.3c2.3-0.5,4.4-1.1,6.4-1.8
			c2-0.7,3.9-1.7,5.6-2.9c1.7-1.2,3.1-3.2,4.2-5.9c1.9-4.5,1.9-8.2,0.2-11s-4.3-5-7.7-6.4c-4.9-2-8.8-2.1-11.8-0.1
			c-3,2-5.7,5.1-8,9.6l-17.9-7.4c1.9-4.5,4.3-8.3,7.3-11.4c3-3.1,6.4-5.3,10.2-6.8c3.8-1.5,7.9-2.1,12.3-1.9
			c4.4,0.2,8.9,1.3,13.5,3.2c10,4.1,17,9.5,21.1,15.9c4.1,6.5,4.2,14.3,0.4,23.4c-1.2,3-2.6,5.4-4.1,7.4c-1.5,2-3.3,3.6-5.2,4.9
			c-2,1.3-4.1,2.4-6.5,3.2c-2.4,0.8-5.1,1.6-8,2.4c-2.7,0.7-4.9,1.5-6.7,2.3c-1.8,0.8-3.3,1.8-4.6,3c-1.3,1.2-2.3,2.6-3.2,4.1
			c-0.9,1.5-1.7,3.3-2.6,5.4L395,149.4z M383.3,175.9l7.5-18.1l18.7,7.8l-7.5,18.1L383.3,175.9z"/>
	</g>
	<path class="st1" d="M286,176.6v-14.8c0-4.9-3.9-8.8-8.8-8.8h-86c-4.9,0-8.8,3.9-8.8,8.8v14.8v98.7c0,4.9,3.9,8.8,8.8,8.8h137.6
		c4.9,0,8.8-3.9,8.8-8.8v-89.9c0-4.9-3.9-8.8-8.8-8.8H286z"/>
	<polygon class="st10" points="277.3,197.3 259.9,214.6 242.6,197.3 232.2,207.8 249.5,225.1 232.2,242.4 242.6,252.9 259.9,235.6 
		277.3,252.9 287.7,242.4 270.4,225.1 287.7,207.8 	"/>
	<g>
		<g>
			<polygon class="st11" points="72.2,419.9 72.2,408.5 51.1,408.5 51.1,439.9 98.6,440.6 98.6,434.9 			"/>
			<path class="st12" d="M100.3,440.6v-2.7c0-2.8-1.5-5.3-4-6.6l-20-10.8c-6,1.6-10.6,1.4-13.8,0.9c-5.3-0.9-10.3-3.3-12-1.3
				c-0.5,0.6-0.5,1.3-0.5,1.8v16.6c0,1.2,0.9,2.1,2.1,2.1L100.3,440.6L100.3,440.6z"/>
			<line class="st13" x1="100.3" y1="438.8" x2="50" y2="438.8"/>
			<line class="st13" x1="89.2" y1="427.7" x2="86.4" y2="431.4"/>
			<line class="st13" x1="87.1" y1="426.5" x2="84.3" y2="430.2"/>
			<line class="st13" x1="85" y1="425.4" x2="82.2" y2="429.1"/>
			<path class="st13" d="M81.8,423.5c-3.4,1.3-9,3-16.1,2.9c-6.9,0-12.3-1.6-15.7-2.9"/>
		</g>
		<g>
			<polygon class="st11" points="132.1,419.9 132.1,408.5 111,408.5 111,439.9 158.5,440.6 158.5,434.9 			"/>
			<path class="st12" d="M160.2,440.6v-2.7c0-2.8-1.5-5.3-4-6.6l-20-10.8c-6,1.6-10.6,1.4-13.8,0.9c-5.3-0.9-10.3-3.3-12-1.3
				c-0.5,0.6-0.5,1.3-0.5,1.8v16.6c0,1.2,0.9,2.1,2.1,2.1L160.2,440.6L160.2,440.6z"/>
			<line class="st13" x1="160.2" y1="438.8" x2="109.9" y2="438.8"/>
			<line class="st13" x1="149.1" y1="427.7" x2="146.3" y2="431.4"/>
			<line class="st13" x1="147" y1="426.5" x2="144.2" y2="430.2"/>
			<line class="st13" x1="144.9" y1="425.4" x2="142.1" y2="429.1"/>
			<path class="st13" d="M141.7,423.5c-3.4,1.3-9,3-16.1,2.9c-6.9,0-12.3-1.6-15.7-2.9"/>
		</g>
		<path class="st9" d="M120,257.4c0,0,17.3,55,20,62.6s5.1,18.3,4.6,27.6c-0.6,9.3-9.5,66.8-9.5,66.8H109c0,0-1.8-60.7-2.7-65.4
			c-0.9-4.8-8.5-31.6-8.5-31.6s-2.5,31.5-4.6,39.8c-2.1,8.4-18.8,58.2-18.8,58.2H50l10.3-157.8L120,257.4L120,257.4z"/>
		<g>
			<path class="st11" d="M159.7,223.9c0,0,8.3-7,10.4-11.6c1.8-3.9,4.3-10.8,5-12.7c0.1-0.3,0.4-0.4,0.7-0.4l0.5,0.1
				c1.5,0.4,2.5,1.9,2.1,3.4l-0.8,3.4l8.7-5.7c0.7-0.5,1.8-0.2,2.2,0.5c0.4,0.7,0.2,1.6-0.4,2l-5.8,4.2l9.6-4.5
				c0.7-0.3,1.6-0.1,2,0.6l0,0c0.4,0.8,0.2,1.7-0.6,2.1l0.1,0c0.8-0.2,1.7,0.2,2.1,0.9c0.4,0.9,0,2-0.9,2.4l-0.6,0.2
				c0.8-0.2,1.6,0.2,1.8,1.1l0,0c0.2,1.2-0.3,2.4-1.4,3c-2.6,1.3-4.2,1.7-6.7,3.5c-1.9,1.4-1.3,2.4-3.3,5c-2.5,3.2-4.7,3.3-9,6.5
				c-1.6,1.2-3.9,3.1-6.3,5.9L159.7,223.9z"/>
			<path class="st14" d="M188.6,201.3c0,0,0.4,0.9-0.4,1.5c-0.8,0.6-7.3,5.4-7.3,5.4"/>
			<line class="st14" x1="193.3" y1="205.5" x2="184.3" y2="209.7"/>
			<line class="st14" x1="194.2" y1="209" x2="185.2" y2="213.1"/>
			<path class="st14" d="M176.9,199.5c0,0,1.6,1,1.5,2.1s-1.6,8.2-1.6,8.2"/>
		</g>
		<path class="st15" d="M109,414.3c0,0-2.4-62.2-2.5-63.8s-9-34.5-9-34.5l1.6-14.6c0,0,17.9,44,17.9,46.9c0,2.9,2,66,2,66L109,414.3
			L109,414.3z"/>
		<line class="st14" x1="94.2" y1="353.2" x2="100.5" y2="284.5"/>
		<polygon class="st16" points="136,409 108.8,409 109,414.3 135,414.3 		"/>
		<polygon class="st16" points="75.9,410.5 50.3,410.5 50,415.2 74.3,415.2 		"/>
		<path class="st17" d="M137.6,325.4c3.4,10.9,4,22.6,1.6,33.8"/>
		<path class="st18" d="M166.6,216.5c0,0-4.4,3.4-9.4,4.3c-5.9,1-11-2.5-12.4-3.4c-3.7-2.6-5.1-5.6-7.6-9.1
			c-7.3-10.5-11.9-17-18.2-20.7c-3.3-1.9-8.8-4.1-17.4-3.4c-1.9-0.7-5-0.1-7.1-0.1c-1.7,0-3.5,0-5.2,0c-3.4,0.4-28.5,3.3-32.7-0.6
			c-1.7-1.5-1.7-3.1-1.7-3.1c0-1.3,0.8-2.6,2.8-4.1c5.1-3.9,14.4-6.7,17.5-7.7l-1.9-14.2c0,0,0,0-4.2,0s-19,2.5-27,5.3
			c-11.2,3.9-17.2,6.8-20.2,13.3c-3.7,8.1,0.2,16.9,1.3,19.1c5.1,11.4,16.5,16,23.4,18.8c6.1,2.5,11.5,3.4,15.2,3.9l-3.2,51.7
			l59.5,3.2h8.9c0.7-7.9-2.7-32.5-2.3-40.5c7.6,10.6,20.2,15.9,32.1,13.6c13.2-2.5,19.9-13.3,20.9-15.1
			C173.1,218.5,166.6,216.5,166.6,216.5z"/>
		<path class="st7" d="M92.7,212.7h-0.6v-24.7h3.7v21.5C95.9,211.3,94.5,212.7,92.7,212.7z"/>
		<path class="st19" d="M127.1,266.9c-2,0.4-30.2,5.1-50.1-15.9c-16.8-17.7-14.8-40.1-14.4-43.5c-1,15.6-2.1,31.1-3.1,46.7h-0.1
			l-0.8,12.2l9.3,0.5l0-0.1c13.9,1.1,28.2,1.9,43,2.4c5.4,0.2,10.8,0.3,16.1,0.4C127,268.8,127,267.8,127.1,266.9z"/>
		<g>
			<path class="st16" d="M111.3,165.4c1-5.2,0.9-9.3,0.6-11.9c-0.2-2-0.6-3.5-1.6-4.9c-0.2-0.3-2-2.6-5-3.2
				c-3.6-0.7-4.5,1.9-9.6,2.5c-4.4,0.5-5.3-1.2-8.3,0.1c-3.2,1.4-4.8,4.6-5.3,5.6c-0.2,0.4-1.3,2.6-1.4,5.7c-0.1,2.4,0.5,4.2,0.7,5
				c0.9,3.1,2,7.9,3.3,15.5c0.7,0,1.4-0.1,2.1-0.1C94.9,174.8,103.1,170.1,111.3,165.4z"/>
			<path class="st11" d="M93.8,191.1L93.8,191.1c-3.9,0-7-3.1-7-7l-0.1-15.1l14-0.1l0.1,15.1C100.8,188,97.7,191.1,93.8,191.1z"/>
			<path class="st20" d="M100.8,179.9l-9.1-4.7c0.1,0.8,0.6,4.5,3.9,7c2.1,1.6,4.3,2,5.3,2.1L100.8,179.9z"/>
			<path class="st11" d="M86.4,164.4c0-0.2-0.6-0.6-0.8-0.7c-0.3-0.2-0.6-0.4-1-0.5c-0.7-0.2-1.4-0.3-2.1-0.1
				c-1.4,0.3-2.6,1.5-2.9,2.9c-0.1,0.8,0.1,1.7,0.4,2.5c0.5,1.2,1.4,2.1,2.6,2.8c0.9,0.5,2,0.8,3,0.9c0.2,0,2.4,0,2.3-0.1
				C87.4,169.5,86.9,166.9,86.4,164.4z"/>
			<path class="st11" d="M84.5,164.5c0.2,1.1,1.2,7.1,6.5,11.2c1,0.8,7.5,5.9,13.5,3.4c7.7-3.2,6.9-15.9,6.8-16.5
				c-0.2-2.3-0.7-9.1-6.4-12.8c-4.6-3-9.6-1.9-10.3-1.7c-0.7,0.2-5.5,1.4-8.4,6C83.6,158.4,84.2,162.7,84.5,164.5z"/>
			<path class="st16" d="M106.9,162.7c0.1,1,0.9,1.7,1.7,1.6c0.8-0.1,1.4-1,1.3-2s-0.9-1.7-1.7-1.6S106.8,161.7,106.9,162.7z"/>
			<path class="st16" d="M98,163.8c0.1,1,0.9,1.7,1.7,1.6c0.8-0.1,1.4-1,1.3-2s-0.9-1.7-1.7-1.6C98.4,161.9,97.9,162.8,98,163.8z"/>
			<path class="st21" d="M104.2,164.1l1.4,1.8c0.3,0.3,0.2,0.8-0.2,1l-1.3,0.8"/>
			<path class="st20" d="M95,168.4c0.1,1.1,1.2,1.9,2.3,1.8c1.1-0.1,1.9-1.1,1.8-2.3c-0.1-1.1-1.2-1.9-2.3-1.8
				C95.7,166.3,94.9,167.3,95,168.4z"/>
			<path class="st21" d="M85.4,169.5c0-0.2,0-1.7-1.2-2.8c-0.9-0.9-2-0.9-2.3-0.9"/>
			<path class="st21" d="M84.4,167c-0.1,0-0.9-0.1-1.4,0.5c-0.5,0.5-0.4,1.1-0.4,1.2"/>
			<path class="st16" d="M84.3,163.2c0,0,1,0.1,1.7,0.8c0.8,0.7,1,2,1,2c1.9-0.2,6.3-1,10.3-4.5c2.2-1.9,3.5-3.9,4.3-5.4
				c0.7,0.7,2,1.6,3.7,2.4c2.3,1,5.1,1.5,5.5,0.7c0.1-0.1,0-0.6-0.2-1.4c-0.1-0.3-0.1-0.7-0.3-1.2c-0.3-0.8-0.7-1.6-1.1-2.4
				c-0.9-1.5-2.1-2.9-3.4-3.9c-0.9-0.7-1.9-1.3-2.9-1.7c-3.3-1.4-7.9-1.4-11.9,0.7c0,0-4.4,2.4-6.4,7c-0.7,1.6-0.8,3.2-0.9,3.7
				c-0.1,1.1,0,1.8,0.2,2.4C84.1,162.7,84.2,163,84.3,163.2z"/>
			<path class="st20" d="M110.2,165.2c0.4,0,0.8,0,1.1,0.2c0,1.1-0.1,2.4-0.4,3.8c-0.1,0-0.1,0-0.2,0c-1.1,0.1-2.1-0.6-2.3-1.8
				S109.1,165.4,110.2,165.2z"/>
			<path class="st22" d="M95.4,148.4c-0.7-0.3-1.6-0.6-2.8-0.9c-2.6-0.7-3.9-1.1-5.1-1c-3.5,0.4-5.5,5-6.3,6.9
				c-0.6,1.4-1.7,3.9-1.1,7c0.2,1.4,0.7,2.4,1.1,3.2"/>
			<path class="st22" d="M95.4,148c1.2-0.5,2.4-0.9,3.6-1.5c1.2-0.6,2.2-1.4,3.5-1.9c1.3-0.5,2.8-0.7,4.2-0.3c1.2,0.4,2.2,1.1,3,2
				c1.1,1.2,2,2.7,2.4,4.3c0.9,3.1,0.1,6.3-0.4,9.3"/>
			<path class="st7" d="M105.7,172c0,1-1,1.8-2.2,1.8c-1.2,0-2.2-0.8-2.2-1.8s1-1.8,2.2-1.8C104.8,170.2,105.7,171,105.7,172z"/>
		</g>
		<path class="st11" d="M73.6,156.9l4-2.4c0,0,0.8-3.5,1.9-4.3c1.1-0.7,7-3,7-3l0.9,0.8c0,0-4.6,4.2-5.6,6.1c-1,1.9-1.1,7.1-1.1,7.1
			l-4.5,5.8l-1.1,0.8L73.6,156.9z"/>
		<line class="st14" x1="62.5" y1="209.8" x2="60.4" y2="236.9"/>
		<line class="st14" x1="123.7" y1="212" x2="125.3" y2="241.9"/>
		<path class="st17" d="M31.3,169.5c-0.8,0.7-5.2,4.2-5.9,10.6c-0.8,6.9,3.4,11.6,4,12.3"/>
		<path class="st17" d="M134,231.2c1.1,1.2,5.4,5.7,12.7,6.7c6.9,0.9,12-1.9,13.5-2.8"/>
	</g>
	<g>
		<path class="st1" d="M322.9,254.8l9.3-5l13.8,2.5l6.9-7.3l16.3,4.4l9.1-12.4l16.2,9.9l-5.5-35l-21.3-14.9l-49.1,7.7
			c-1.8,0.3-3.1,2-2.8,3.8L322.9,254.8z"/>
		<path class="st10" d="M372.5,214.6l16.4-2.6l-21.3-14.9l2.5,15.7C370.2,213.9,371.3,214.8,372.5,214.6z"/>
		<path class="st23" d="M367.5,197.1l2.5,15.7c0.2,1.2,1.3,2,2.5,1.8l16.4-2.6"/>
		<path class="st1" d="M329.6,300.8c0.3,1.8,2,3.1,3.8,2.8l64.3-10.1c1.8-0.3,3.1-2,2.8-3.8l-6.1-38.7l-16.2-9.9l-9.1,12.4
			l-16.3-4.4l-6.9,7.3l-13.8-2.5l-9.3,5L329.6,300.8z"/>
		<path class="st23" d="M323,254.8l9.3-5l13.8,2.5l6.9-7.3l16.3,4.4l9.1-12.4l16.2,9.9l-5.5-35l-21.3-14.9l-49.1,7.7
			c-1.8,0.3-3.1,2-2.8,3.8L323,254.8z"/>
		<path class="st23" d="M329.6,300.8c0.3,1.8,2,3.1,3.8,2.8l64.3-10.1c1.8-0.3,3.1-2,2.8-3.8l-6.1-38.7l-16.2-9.9l-9.1,12.4
			l-16.3-4.4l-6.9,7.3l-13.8-2.5l-9.3,5L329.6,300.8z"/>
	</g>
	<polygon class="st24" points="74.4,146.1 72.7,147.6 58.4,134.7 62.5,130.8 	"/>
	<polygon class="st24" points="77.9,143.4 75.7,143.8 70.8,125.2 76.4,124.1 	"/>
	<polygon class="st24" points="70.3,149.6 70.1,151.9 50.7,151.7 51.2,146 	"/>
	<g>
		<path class="st24" d="M301.2,433.1L301.2,433.1c-4.9-4.8-4.9-12.6-0.2-17.4l56.7-57.7l17.6,17.3l-56.7,57.7
			C313.9,437.8,306.1,437.8,301.2,433.1z"/>
		<ellipse class="st25" cx="402.3" cy="330.2" rx="49.8" ry="49.8"/>
		<path class="st26" d="M355.6,347.8c1.7,4.5,4,8.7,7,12.7l89.4-30.9c-0.1-4.8-0.8-9.7-2.3-14.3L355.6,347.8z"/>
		<path class="st26" d="M352.6,333.5c0.2,2.8,0.6,5.6,1.3,8.4l93.7-32.4c-1.2-2.6-2.6-5-4.2-7.4L352.6,333.5z"/>
		<path class="st24" d="M442.5,289.3c-22.6-22.2-59-21.9-81.3,0.7c-22.2,22.6-21.9,59,0.7,81.3c22.6,22.2,59,21.9,81.3-0.7
			S465.2,311.5,442.5,289.3z M369.1,364c-18.6-18.3-18.9-48.3-0.6-66.9c18.3-18.6,48.3-18.9,66.9-0.6s18.9,48.3,0.6,66.9
			C417.7,382.1,387.7,382.3,369.1,364z"/>
		<line class="st8" x1="361.7" y1="380.5" x2="316.9" y2="426.1"/>
		<path class="st8" d="M406.4,276.9c-14.1-1.4-28.8,3.5-39.2,13.1c-10.5,9.6-16.5,23.8-16.3,38"/>
	</g>
</g>
</svg>
